<?xml version="1.0" standalone="no"?>
<!DOCTYPE svg PUBLIC "-//W3C//DTD SVG 20010904//EN"
 "http://www.w3.org/TR/2001/REC-SVG-20010904/DTD/svg10.dtd">
<svg version="1.0" xmlns="http://www.w3.org/2000/svg"
 width="512.000000pt" height="512.000000pt" viewBox="0 0 512.000000 512.000000"
 preserveAspectRatio="xMidYMid meet">

<g transform="translate(0.000000,512.000000) scale(0.100000,-0.100000)"
fill="#000000" stroke="none">
<path d="M2315 5109 c-474 -46 -943 -234 -1334 -537 -111 -85 -348 -322 -433
-433 -158 -204 -310 -476 -393 -703 -48 -131 -108 -371 -131 -521 -26 -168
-26 -542 0 -710 23 -151 83 -391 131 -521 85 -231 235 -500 393 -703 81 -105
310 -336 412 -417 207 -163 488 -322 724 -409 130 -48 370 -108 521 -131 148
-22 532 -26 670 -6 482 69 888 240 1265 530 103 80 334 309 416 412 160 203
324 492 408 721 51 139 103 343 128 504 29 189 31 541 4 720 -24 156 -78 372
-128 510 -54 149 -162 367 -248 498 -38 59 -70 111 -70 115 0 4 107 114 237
244 l238 238 -308 0 -307 0 0 307 0 308 -238 -238 c-130 -130 -240 -237 -244
-237 -4 0 -40 22 -80 49 -473 316 -1064 464 -1633 410z m575 -314 c289 -45
612 -166 844 -315 l79 -51 -216 -217 -217 -217 -97 47 c-363 178 -790 215
-1181 102 -555 -161 -992 -608 -1136 -1166 -41 -157 -51 -235 -51 -418 0 -183
10 -261 51 -418 161 -622 669 -1089 1317 -1209 115 -21 417 -24 527 -5 357 63
659 215 904 457 507 500 639 1264 328 1898 l-47 97 217 217 217 216 50 -79
c154 -239 271 -554 318 -855 24 -158 24 -491 -1 -644 -40 -251 -100 -444 -206
-661 -223 -458 -585 -820 -1045 -1045 -216 -105 -408 -165 -660 -205 -154 -25
-496 -25 -650 0 -433 70 -808 240 -1135 514 -443 371 -736 934 -790 1517 -69
748 251 1499 837 1966 254 202 570 359 873 432 100 25 264 52 360 61 93 8 409
-4 510 -19z m1413 -585 l92 0 -300 -300 -300 -300 -92 0 -93 0 0 92 0 93 298
298 297 297 3 -90 3 -90 92 0z m-1483 -325 c146 -29 324 -98 434 -169 l56 -36
0 -77 0 -78 -169 -169 -169 -169 -53 30 c-232 131 -529 121 -758 -24 -74 -46
-182 -154 -231 -229 -158 -242 -158 -571 0 -809 113 -170 287 -289 482 -329
246 -51 499 26 677 207 135 137 205 290 218 481 9 136 -17 257 -84 390 l-35
69 169 169 168 168 78 0 77 0 36 -56 c74 -116 148 -311 175 -464 20 -111 18
-375 -4 -479 -62 -290 -178 -506 -381 -706 -201 -199 -415 -313 -696 -372
-118 -24 -382 -24 -500 0 -283 59 -505 179 -705 381 -198 200 -313 415 -372
696 -24 118 -24 382 0 500 39 185 110 356 212 510 64 96 259 291 355 355 185
123 398 201 620 229 67 8 326 -4 400 -19z m-170 -885 c25 -6 58 -16 73 -22
l29 -11 -146 -146 c-80 -81 -146 -151 -146 -156 0 -13 192 -205 205 -205 6 0
75 65 155 145 165 166 158 165 182 26 32 -185 -64 -377 -231 -465 -180 -94
-384 -64 -527 79 -247 246 -130 666 211 751 62 15 136 17 195 4z"/>
</g>
</svg>
