<?xml version="1.0" standalone="no"?>
<!DOCTYPE svg PUBLIC "-//W3C//DTD SVG 20010904//EN"
 "http://www.w3.org/TR/2001/REC-SVG-20010904/DTD/svg10.dtd">
<svg version="1.0" xmlns="http://www.w3.org/2000/svg"
 width="512.000000pt" height="512.000000pt" viewBox="0 0 512.000000 512.000000"
 preserveAspectRatio="xMidYMid meet">

<g transform="translate(0.000000,512.000000) scale(0.100000,-0.100000)"
fill="#000000" stroke="none">
<path d="M0 2550 l0 -1930 2560 0 2560 0 0 1930 0 1930 -2560 0 -2560 0 0
-1930z m3620 645 c-899 -900 -927 -926 -979 -941 -66 -20 -139 -13 -190 17
-20 12 -319 308 -665 658 -347 350 -754 761 -905 914 l-276 277 1970 0 1970 0
-925 -925z m-2098 -510 l127 -130 -644 -657 -645 -657 0 1309 0 1309 518 -522
c284 -287 574 -581 644 -652z m3238 -147 l-1 -1293 -272 276 c-150 152 -437
445 -639 651 l-368 375 636 642 c350 352 638 641 640 641 2 0 4 -582 4 -1292z
m-2696 -396 c172 -168 224 -204 351 -237 77 -20 230 -19 309 1 120 31 189 77
354 238 l153 150 24 -25 c13 -13 301 -307 639 -654 l616 -630 -975 -3 c-536
-1 -1414 -1 -1950 0 l-975 3 643 657 c353 361 644 657 646 657 2 1 77 -70 165
-157z"/>
</g>
</svg>
